<svg width="19" height="19" viewBox="0 0 19 19" fill="none" xmlns="http://www.w3.org/2000/svg">
<path d="M9.55142 18.0008C14.2175 18.0008 18.0001 14.2182 18.0001 9.55215C18.0001 4.8861 14.2175 1.10352 9.55142 1.10352C4.88537 1.10352 1.10278 4.8861 1.10278 9.55215C1.10278 14.2182 4.88537 18.0008 9.55142 18.0008Z" stroke="#FB6D3A" stroke-width="1.67823" stroke-linecap="round" stroke-linejoin="round"/>
<path d="M7.09314 7.01773C7.29177 6.45308 7.68383 5.97695 8.19987 5.67366C8.71592 5.37038 9.32265 5.25951 9.9126 5.36071C10.5025 5.4619 11.0377 5.76862 11.4231 6.22654C11.8086 6.68446 12.0196 7.26402 12.0187 7.86259C12.0187 9.55232 9.4841 10.3972 9.4841 10.3972" stroke="#FB6D3A" stroke-width="1.67823" stroke-linecap="round" stroke-linejoin="round"/>
<path d="M9.552 13.7344H9.56001" stroke="#FB6D3A" stroke-width="1.67823" stroke-linecap="round" stroke-linejoin="round"/>
</svg>
