<svg width="20" height="21" viewBox="0 0 20 21" fill="none" xmlns="http://www.w3.org/2000/svg">
<path d="M4 1.61206L1 5.28553V18.1427C1 18.6298 1.21071 19.097 1.58579 19.4414C1.96086 19.7859 2.46957 19.9794 3 19.9794H17C17.5304 19.9794 18.0391 19.7859 18.4142 19.4414C18.7893 19.097 19 18.6298 19 18.1427V5.28553L16 1.61206H4Z" stroke="white" stroke-width="2" stroke-linecap="round" stroke-linejoin="round"/>
<path d="M1 5.28552H19" stroke="white" stroke-width="2" stroke-linecap="round" stroke-linejoin="round"/>
<path d="M14 8.95898C14 9.93325 13.5786 10.8676 12.8284 11.5565C12.0783 12.2454 11.0609 12.6325 10 12.6325C8.93913 12.6325 7.92172 12.2454 7.17157 11.5565C6.42143 10.8676 6 9.93325 6 8.95898" stroke="white" stroke-width="2" stroke-linecap="round" stroke-linejoin="round"/>
</svg>
