<svg width="16" height="14" viewBox="0 0 16 14" fill="none" xmlns="http://www.w3.org/2000/svg">
<path d="M13.9205 1.99745C13.5784 1.66048 13.1722 1.39318 12.7252 1.21081C12.2782 1.02844 11.799 0.93457 11.3151 0.93457C10.8312 0.93457 10.3521 1.02844 9.90504 1.21081C9.45801 1.39318 9.05185 1.66048 8.70976 1.99745L7.99982 2.69644L7.28988 1.99745C6.5989 1.31712 5.66172 0.934923 4.68453 0.934923C3.70733 0.934923 2.77016 1.31712 2.07917 1.99745C1.38819 2.67777 1 3.60049 1 4.56261C1 5.52473 1.38819 6.44745 2.07917 7.12777L2.78911 7.82676L7.99982 12.9571L13.2105 7.82676L13.9205 7.12777C14.2627 6.79097 14.5342 6.39107 14.7194 5.95093C14.9047 5.51079 15 5.03904 15 4.56261C15 4.08618 14.9047 3.61443 14.7194 3.17429C14.5342 2.73415 14.2627 2.33425 13.9205 1.99745V1.99745Z" stroke="#B33DFB" stroke-width="1.5" stroke-linecap="round" stroke-linejoin="round"/>
</svg>
