<svg width="38" height="38" viewBox="0 0 38 38" fill="none" xmlns="http://www.w3.org/2000/svg">
<path d="M17.429 3.21313C17.429 4.23418 16.3295 5.09813 13.8947 5.96209C9.96758 7.53292 6.98299 10.5961 5.64779 14.6802C5.01945 16.5652 4.23404 17.4292 3.21299 17.4292C2.27049 17.4292 1.7207 17.979 1.7207 19C1.7207 20.021 2.27049 20.5708 3.21299 20.5708C4.23404 20.5708 5.09799 21.6704 5.96195 24.1052C7.53279 28.0323 10.5959 31.0169 14.6801 32.3521C16.5651 32.9804 17.429 33.7658 17.429 34.7869C17.429 35.7294 17.9788 36.2792 18.9999 36.2792C20.0209 36.2792 20.5707 35.7294 20.5707 34.7869C20.5707 33.7658 21.4347 32.9804 23.3197 32.3521C27.4038 31.0169 30.467 28.0323 32.0378 24.1052C32.9017 21.6704 33.7657 20.5708 34.7867 20.5708C35.7292 20.5708 36.279 20.021 36.279 19C36.279 17.979 35.7292 17.4292 34.7867 17.4292C33.7657 17.4292 32.9017 16.3296 32.0378 13.8948C30.467 9.96772 27.4038 6.98313 23.3197 5.64792C21.4347 5.01959 20.5707 4.23418 20.5707 3.21313C20.5707 2.27063 20.0209 1.72084 18.9999 1.72084C17.9788 1.72084 17.429 2.27063 17.429 3.21313ZM24.3407 9.57501C31.7236 14.0519 31.7236 23.9481 24.3407 28.425C19.314 31.4881 12.8736 29.6817 9.57487 24.3408C3.99841 15.1515 15.1513 3.99855 24.3407 9.57501Z" fill="black"/>
<path d="M15.8582 15.8584C14.9942 16.7223 14.2874 18.1361 14.2874 19C14.2874 21.0421 16.9578 23.7125 18.9999 23.7125C21.0419 23.7125 23.7124 21.0421 23.7124 19C23.7124 18.1361 23.0055 16.7223 22.1415 15.8584C21.2776 14.9944 19.8638 14.2875 18.9999 14.2875C18.1359 14.2875 16.7221 14.9944 15.8582 15.8584Z" fill="black"/>
</svg>
