<svg width="24" height="24" viewBox="0 0 24 24" fill="none" xmlns="http://www.w3.org/2000/svg">
<path d="M7.65002 1.34531C7.56565 1.3875 7.44846 1.48594 7.39221 1.56563C7.29846 1.69688 7.28909 1.77188 7.27502 2.47031L7.26096 3.23438H6.01877C5.3344 3.23438 4.62659 3.25781 4.44377 3.28594C2.95784 3.51563 1.76721 4.58906 1.35471 6.075L1.25159 6.44531L1.26096 12.9609C1.27034 19.1531 1.27502 19.4953 1.3594 19.8563C1.68284 21.2391 2.75159 22.3078 4.14377 22.6406C4.5094 22.7297 4.75315 22.7344 12 22.7344C19.2797 22.7344 19.486 22.7297 19.861 22.6406C21.2532 22.3078 22.3172 21.2391 22.6406 19.8563C22.725 19.4953 22.7297 19.1484 22.7391 13.0078L22.7532 6.53906L22.65 6.12656C22.3782 5.02969 21.6563 4.12969 20.6485 3.6375C19.9407 3.29063 19.8141 3.26719 18.1782 3.24844L16.7344 3.225V2.52188C16.7344 1.96875 16.7203 1.78594 16.6594 1.65938C16.5469 1.425 16.3406 1.29844 16.036 1.275C15.7078 1.25156 15.4969 1.37813 15.3422 1.6875C15.2438 1.875 15.2344 1.96406 15.2344 2.56406V3.23438H12.0047H8.77502L8.75627 2.51719C8.74221 1.89844 8.72815 1.78125 8.64377 1.64063C8.44221 1.29375 8.01565 1.1625 7.65002 1.34531ZM7.26565 5.50313C7.26565 6.16875 7.27502 6.22969 7.37346 6.375C7.52346 6.6 7.6969 6.7125 7.93127 6.73594C8.20315 6.76875 8.4844 6.62813 8.62971 6.38906C8.73284 6.225 8.74221 6.15 8.75627 5.49375L8.77502 4.78125H12H15.225L15.2438 5.49375C15.2578 6.15 15.2672 6.225 15.3703 6.38906C15.5156 6.62813 15.7969 6.76875 16.0688 6.73594C16.3032 6.7125 16.4766 6.6 16.6266 6.375C16.725 6.22969 16.7344 6.16875 16.7344 5.49844V4.77656L18.1547 4.79063L19.5703 4.80469L19.936 4.97813C20.3672 5.18438 20.7844 5.57344 20.9719 5.94375C21.1828 6.36563 21.2344 6.65625 21.2344 7.48594V8.25H12H2.76565V7.48594C2.76565 6.65625 2.81721 6.36563 3.02815 5.94375C3.26721 5.475 3.82034 5.025 4.38284 4.84688C4.51409 4.80469 4.96409 4.78594 5.92034 4.78594L7.26565 4.78125V5.50313ZM21.2344 14.5453C21.2344 19.7813 21.2485 19.5281 20.9672 20.0813C20.8172 20.3813 20.3813 20.8172 20.0813 20.9672C19.5188 21.2531 20.0391 21.2344 12 21.2344C3.96096 21.2344 4.48127 21.2531 3.91877 20.9672C3.61877 20.8172 3.18284 20.3813 3.03284 20.0813C2.75159 19.5281 2.76565 19.7813 2.76565 14.5453V9.75H12H21.2344V14.5453Z" fill="#A0A5BA"/>
<path d="M5.62504 12.075C5.12347 12.2906 4.87972 12.8906 5.08597 13.3969C5.38597 14.1094 6.36566 14.2031 6.81566 13.5562C7.00316 13.2891 7.04066 12.8578 6.90004 12.5812C6.64691 12.0937 6.09379 11.8734 5.62504 12.075Z" fill="#A0A5BA"/>
<path d="M9.6656 12.0515C9.57654 12.0796 9.41716 12.1921 9.30466 12.2999C8.97654 12.6281 8.9156 13.0265 9.12185 13.4484C9.43591 14.0765 10.2656 14.189 10.725 13.6593C11.4093 12.8859 10.6734 11.7656 9.6656 12.0515Z" fill="#A0A5BA"/>
<path d="M13.5516 12.1219C12.9328 12.4313 12.8156 13.1953 13.3125 13.6875C13.8047 14.1844 14.5687 14.0672 14.8781 13.4484C15.0797 13.0359 15.0187 12.6234 14.6953 12.3047C14.3766 11.9813 13.9641 11.9203 13.5516 12.1219Z" fill="#A0A5BA"/>
<path d="M17.625 12.075C17.1235 12.2906 16.8797 12.8906 17.086 13.3969C17.386 14.1094 18.3657 14.2031 18.8157 13.5562C19.0032 13.2891 19.0407 12.8578 18.9 12.5812C18.6469 12.0937 18.0938 11.8734 17.625 12.075Z" fill="#A0A5BA"/>
<path d="M5.76562 16.0266C5.27344 16.1859 5.01562 16.5234 5.01562 17.0156C5.01562 17.2875 5.12344 17.5359 5.32969 17.7281C5.81719 18.1922 6.60937 18.0328 6.89531 17.4141C7.05469 17.0672 6.98437 16.5891 6.73594 16.3219C6.51562 16.0828 6.0375 15.9375 5.76562 16.0266Z" fill="#A0A5BA"/>
<path d="M9.75941 16.0312C9.49222 16.0922 9.25316 16.289 9.12191 16.5515C8.91566 16.9687 8.97659 17.3719 9.29534 17.6906C9.62347 18.0187 10.0313 18.0844 10.4485 17.8781C11.0438 17.5781 11.175 16.8515 10.725 16.3406C10.5891 16.1812 10.4766 16.1062 10.2985 16.0547C10.0407 15.9797 9.98909 15.975 9.75941 16.0312Z" fill="#A0A5BA"/>
<path d="M13.7251 16.0406C13.6266 16.064 13.4532 16.1718 13.3407 16.275C12.811 16.7343 12.9235 17.564 13.5516 17.8781C13.9641 18.0843 14.3766 18.0187 14.7001 17.6953C15.4126 16.9828 14.7001 15.7687 13.7251 16.0406Z" fill="#A0A5BA"/>
<path d="M17.7656 16.0266C17.2734 16.1859 17.0156 16.5234 17.0156 17.0156C17.0156 17.2875 17.1234 17.5359 17.3297 17.7281C17.8172 18.1922 18.6094 18.0328 18.8953 17.4141C19.0547 17.0672 18.9844 16.5891 18.7359 16.3219C18.5156 16.0828 18.0375 15.9375 17.7656 16.0266Z" fill="#A0A5BA"/>
</svg>
