<svg width="18" height="20" viewBox="0 0 18 20" fill="none" xmlns="http://www.w3.org/2000/svg">
<path d="M2.26232 2.10801C1.34566 3.98717 1.84982 5.27051 3.49982 5.27051C5.14982 5.27051 5.65399 3.98717 4.73732 2.10801C4.32482 1.19134 3.77482 0.458008 3.49982 0.458008C3.22482 0.458008 2.67482 1.19134 2.26232 2.10801Z" fill="#FF7722"/>
<path d="M7.76232 2.10801C6.84566 3.98717 7.34982 5.27051 8.99982 5.27051C10.6498 5.27051 11.154 3.98717 10.2373 2.10801C9.82482 1.19134 9.27482 0.458008 8.99982 0.458008C8.72482 0.458008 8.17482 1.19134 7.76232 2.10801Z" fill="#FF7722"/>
<path d="M13.2623 2.10801C12.3457 3.98717 12.8498 5.27051 14.4998 5.27051C16.1498 5.27051 16.654 3.98717 15.7373 2.10801C15.3248 1.19134 14.7748 0.458008 14.4998 0.458008C14.2248 0.458008 13.6748 1.19134 13.2623 2.10801Z" fill="#FF7722"/>
<path d="M2.58324 7.33333C2.58324 7.8375 2.17074 8.6625 1.66658 9.16667C0.795742 10.0375 0.749909 10.5875 0.841576 15.0333L0.979076 19.9375H8.99991H17.0207L17.1582 15.0333C17.2499 10.5875 17.2041 10.0375 16.3332 9.16667C15.8291 8.6625 15.4166 7.8375 15.4166 7.33333C15.4166 6.7375 15.0957 6.41667 14.4999 6.41667C13.9041 6.41667 13.5832 6.7375 13.5832 7.33333C13.5832 8.1125 13.2624 8.25 11.7499 8.25C10.2374 8.25 9.91658 8.1125 9.91658 7.33333C9.91658 6.7375 9.59574 6.41667 8.99991 6.41667C8.40408 6.41667 8.08324 6.7375 8.08324 7.33333C8.08324 8.1125 7.76241 8.25 6.24991 8.25C4.73741 8.25 4.41658 8.1125 4.41658 7.33333C4.41658 6.7375 4.09574 6.41667 3.49991 6.41667C2.90408 6.41667 2.58324 6.7375 2.58324 7.33333ZM15.3249 12.0083C15.5082 14.0708 15.1874 14.1625 13.4916 12.5125L12.2082 11.275L10.9249 12.5125C9.32074 14.0708 8.67908 14.0708 7.07491 12.5125L5.79158 11.275L4.50824 12.5125C3.82074 13.2 3.08741 13.75 2.90408 13.75C2.49158 13.75 2.49158 10.7708 2.90408 10.3583C3.08741 10.2208 5.92908 10.1292 9.18324 10.175L15.1874 10.3125L15.3249 12.0083ZM6.89158 14.8958C8.03741 15.7667 9.91658 15.7667 11.1082 14.9417C11.9332 14.3458 12.2541 14.3458 13.7207 15.0333C15.0499 15.6292 15.3707 16.0875 15.4166 17.05V18.3333H8.99991H2.58324V17.05C2.58324 16.1333 2.94991 15.6292 4.09574 15.0792C5.97491 14.1167 5.88324 14.1167 6.89158 14.8958Z" fill="#FF7722"/>
</svg>
