<svg width="15" height="19" viewBox="0 0 15 19" fill="none" xmlns="http://www.w3.org/2000/svg">
<path d="M0.280029 9.50023V18.2402H7.50003H14.72V9.50023V0.760233H7.50003H0.280029V9.50023ZM13.96 9.50023V17.4802H7.50003H1.04003V9.50023V1.52023H7.50003H13.96V9.50023Z" fill="#FF9A42"/>
<path d="M2.94006 4.56043C2.94006 4.78843 4.72606 4.94043 7.50006 4.94043C10.2741 4.94043 12.0601 4.78843 12.0601 4.56043C12.0601 4.33243 10.2741 4.18043 7.50006 4.18043C4.72606 4.18043 2.94006 4.33243 2.94006 4.56043Z" fill="#FF9A42"/>
<path d="M2.94006 9.87977C2.94006 10.0698 3.28206 10.2598 3.70006 10.2598C4.11806 10.2598 4.46006 10.0698 4.46006 9.87977C4.46006 9.65177 4.11806 9.49977 3.70006 9.49977C3.28206 9.49977 2.94006 9.65177 2.94006 9.87977Z" fill="#FF9A42"/>
<path d="M5.59998 9.87977C5.59998 10.1078 6.92998 10.2598 8.82998 10.2598C10.73 10.2598 12.06 10.1078 12.06 9.87977C12.06 9.65177 10.73 9.49977 8.82998 9.49977C6.92998 9.49977 5.59998 9.65177 5.59998 9.87977Z" fill="#FF9A42"/>
<path d="M2.94006 12.16C2.94006 12.35 3.28206 12.54 3.70006 12.54C4.11806 12.54 4.46006 12.35 4.46006 12.16C4.46006 11.932 4.11806 11.78 3.70006 11.78C3.28206 11.78 2.94006 11.932 2.94006 12.16Z" fill="#FF9A42"/>
<path d="M5.59998 12.16C5.59998 12.388 6.92998 12.54 8.82998 12.54C10.73 12.54 12.06 12.388 12.06 12.16C12.06 11.932 10.73 11.78 8.82998 11.78C6.92998 11.78 5.59998 11.932 5.59998 12.16Z" fill="#FF9A42"/>
<path d="M2.94006 14.4403C2.94006 14.6303 3.28206 14.8203 3.70006 14.8203C4.11806 14.8203 4.46006 14.6303 4.46006 14.4403C4.46006 14.2123 4.11806 14.0603 3.70006 14.0603C3.28206 14.0603 2.94006 14.2123 2.94006 14.4403Z" fill="#FF9A42"/>
<path d="M5.59998 14.4403C5.59998 14.6683 6.92998 14.8203 8.82998 14.8203C10.73 14.8203 12.06 14.6683 12.06 14.4403C12.06 14.2123 10.73 14.0603 8.82998 14.0603C6.92998 14.0603 5.59998 14.2123 5.59998 14.4403Z" fill="#FF9A42"/>
</svg>
