<svg width="14" height="15" viewBox="0 0 14 15" fill="none" xmlns="http://www.w3.org/2000/svg">
<path d="M11 1.54395C10.4696 1.54395 9.96086 1.75505 9.58579 2.13083C9.21071 2.50661 9 3.01627 9 3.5477V11.5627C9 12.0941 9.21071 12.6038 9.58579 12.9796C9.96086 13.3554 10.4696 13.5665 11 13.5665C11.5304 13.5665 12.0391 13.3554 12.4142 12.9796C12.7893 12.6038 13 12.0941 13 11.5627C13 11.0313 12.7893 10.5216 12.4142 10.1458C12.0391 9.77006 11.5304 9.55896 11 9.55896H3C2.46957 9.55896 1.96086 9.77006 1.58579 10.1458C1.21071 10.5216 1 11.0313 1 11.5627C1 12.0941 1.21071 12.6038 1.58579 12.9796C1.96086 13.3554 2.46957 13.5665 3 13.5665C3.53043 13.5665 4.03914 13.3554 4.41421 12.9796C4.78929 12.6038 5 12.0941 5 11.5627V3.5477C5 3.01627 4.78929 2.50661 4.41421 2.13083C4.03914 1.75505 3.53043 1.54395 3 1.54395C2.46957 1.54395 1.96086 1.75505 1.58579 2.13083C1.21071 2.50661 1 3.01627 1 3.5477C1 4.07913 1.21071 4.58879 1.58579 4.96456C1.96086 5.34034 2.46957 5.55145 3 5.55145H11C11.5304 5.55145 12.0391 5.34034 12.4142 4.96456C12.7893 4.58879 13 4.07913 13 3.5477C13 3.01627 12.7893 2.50661 12.4142 2.13083C12.0391 1.75505 11.5304 1.54395 11 1.54395Z" stroke="#2AE1E1" stroke-width="1.28571" stroke-linecap="round" stroke-linejoin="round"/>
</svg>
