<svg width="17" height="16" viewBox="0 0 17 16" fill="none" xmlns="http://www.w3.org/2000/svg">
<path fill-rule="evenodd" clip-rule="evenodd" d="M1.3613 3.09032C1.59438 2.7044 3.05225 0.958383 3.96868 1.00076C4.24262 1.02346 4.48478 1.18918 4.68153 1.38138C5.13331 1.82255 6.4266 3.49109 6.5 3.84221C6.67859 4.70334 5.18595 5.47419 5.5 6.34214C6.30064 8.30126 8.04002 10.0423 10 10.8421C10.8672 11.1562 11.6388 9.66294 12.5 9.84229C12.8504 9.91569 14.5588 11.3905 15 11.8423C15.1915 12.0383 15.3579 12.2812 15.3806 12.5551C15.4147 13.5199 13.5427 14.814 13.2521 14.9805C12.5665 15.4709 11.672 15.4625 10.5815 14.9555C7.53864 13.6896 2.67577 8.91851 1.38627 5.76075C0.892869 4.67639 0.858816 3.7759 1.3613 3.09032Z" stroke="#369BFF" stroke-width="1.3" stroke-linecap="round" stroke-linejoin="round"/>
</svg>
