<svg width="16" height="17" viewBox="0 0 16 17" fill="none" xmlns="http://www.w3.org/2000/svg">
<path d="M8 10.6638C9.10457 10.6638 10 9.76664 10 8.66C10 7.55336 9.10457 6.65625 8 6.65625C6.89543 6.65625 6 7.55336 6 8.66C6 9.76664 6.89543 10.6638 8 10.6638Z" stroke="#413DFB" stroke-width="1.2" stroke-linecap="round" stroke-linejoin="round"/>
<path d="M12.9333 10.6643C12.8445 10.8658 12.8181 11.0892 12.8573 11.3059C12.8965 11.5226 12.9996 11.7225 13.1533 11.8799L13.1933 11.92C13.3173 12.0441 13.4156 12.1914 13.4827 12.3536C13.5498 12.5157 13.5843 12.6896 13.5843 12.8651C13.5843 13.0407 13.5498 13.2145 13.4827 13.3767C13.4156 13.5388 13.3173 13.6861 13.1933 13.8102C13.0695 13.9344 12.9224 14.0329 12.7605 14.1002C12.5987 14.1674 12.4252 14.202 12.25 14.202C12.0747 14.202 11.9012 14.1674 11.7394 14.1002C11.5775 14.0329 11.4305 13.9344 11.3066 13.8102L11.2666 13.7701C11.1095 13.6162 10.9099 13.5129 10.6937 13.4736C10.4774 13.4343 10.2544 13.4608 10.0533 13.5497C9.85611 13.6344 9.68795 13.775 9.5695 13.9542C9.45105 14.1334 9.38748 14.3434 9.38662 14.5583V14.6718C9.38662 15.0261 9.24615 15.3659 8.9961 15.6164C8.74605 15.8669 8.40691 16.0077 8.05329 16.0077C7.69967 16.0077 7.36053 15.8669 7.11048 15.6164C6.86043 15.3659 6.71996 15.0261 6.71996 14.6718V14.6117C6.7148 14.3906 6.64337 14.1762 6.51497 13.9964C6.38656 13.8165 6.20712 13.6795 5.99996 13.6032C5.79888 13.5142 5.57583 13.4877 5.35957 13.527C5.1433 13.5663 4.94374 13.6696 4.78663 13.8236L4.74663 13.8636C4.62279 13.9878 4.47574 14.0864 4.31388 14.1536C4.15202 14.2208 3.97851 14.2554 3.80329 14.2554C3.62807 14.2554 3.45457 14.2208 3.29271 14.1536C3.13084 14.0864 2.98379 13.9878 2.85996 13.8636C2.73599 13.7396 2.63765 13.5923 2.57055 13.4301C2.50345 13.2679 2.46891 13.0941 2.46891 12.9185C2.46891 12.743 2.50345 12.5692 2.57055 12.407C2.63765 12.2448 2.73599 12.0975 2.85996 11.9734L2.89996 11.9334C3.05365 11.7759 3.15675 11.576 3.19596 11.3593C3.23517 11.1427 3.2087 10.9192 3.11996 10.7178C3.03545 10.5202 2.89513 10.3517 2.71627 10.2331C2.53741 10.1144 2.32782 10.0507 2.11329 10.0498H1.99996C1.64634 10.0498 1.3072 9.9091 1.05715 9.65858C0.807102 9.40806 0.666626 9.06829 0.666626 8.714C0.666626 8.35972 0.807102 8.01994 1.05715 7.76942C1.3072 7.51891 1.64634 7.37817 1.99996 7.37817H2.05996C2.28062 7.373 2.49463 7.30144 2.67416 7.17279C2.85369 7.04414 2.99044 6.86436 3.06663 6.65682C3.15537 6.45536 3.18184 6.23189 3.14263 6.01522C3.10342 5.79855 3.00032 5.59862 2.84663 5.44121L2.80663 5.40113C2.68266 5.27707 2.58431 5.12974 2.51721 4.96757C2.45011 4.80541 2.41558 4.63158 2.41558 4.45603C2.41558 4.28048 2.45011 4.10665 2.51721 3.94448C2.58431 3.78232 2.68266 3.63499 2.80663 3.51092C2.93046 3.38672 3.07751 3.28819 3.23937 3.22097C3.40124 3.15374 3.57474 3.11914 3.74996 3.11914C3.92518 3.11914 4.09868 3.15374 4.26055 3.22097C4.42241 3.28819 4.56946 3.38672 4.69329 3.51092L4.73329 3.551C4.89041 3.70498 5.08997 3.80827 5.30623 3.84756C5.5225 3.88684 5.74555 3.86032 5.94663 3.77141H5.99996C6.19714 3.68675 6.3653 3.54616 6.48375 3.36697C6.6022 3.18777 6.66577 2.97778 6.66663 2.76286V2.64931C6.66663 2.29503 6.8071 1.95525 7.05715 1.70473C7.3072 1.45422 7.64634 1.31348 7.99996 1.31348C8.35358 1.31348 8.69272 1.45422 8.94277 1.70473C9.19282 1.95525 9.33329 2.29503 9.33329 2.64931V2.70942C9.33415 2.92435 9.39771 3.13434 9.51616 3.31353C9.63461 3.49273 9.80278 3.63331 9.99996 3.71798C10.201 3.80689 10.4241 3.83341 10.6404 3.79412C10.8566 3.75484 11.0562 3.65155 11.2133 3.49757L11.2533 3.45749C11.3771 3.33329 11.5242 3.23476 11.686 3.16754C11.8479 3.10031 12.0214 3.06571 12.1966 3.06571C12.3718 3.06571 12.5453 3.10031 12.7072 3.16754C12.8691 3.23476 13.0161 3.33329 13.14 3.45749C13.2639 3.58155 13.3623 3.72888 13.4294 3.89105C13.4965 4.05322 13.531 4.22705 13.531 4.40259C13.531 4.57814 13.4965 4.75197 13.4294 4.91414C13.3623 5.07631 13.2639 5.22363 13.14 5.3477L13.1 5.38777C12.9463 5.54519 12.8432 5.74512 12.804 5.96179C12.7647 6.17846 12.7912 6.40193 12.88 6.60338V6.65682C12.9645 6.85437 13.1048 7.02285 13.2836 7.14152C13.4625 7.26019 13.6721 7.32388 13.8866 7.32473H14C14.3536 7.32473 14.6927 7.46547 14.9428 7.71599C15.1928 7.96651 15.3333 8.30628 15.3333 8.66057C15.3333 9.01485 15.1928 9.35463 14.9428 9.60515C14.6927 9.85566 14.3536 9.9964 14 9.9964H13.94C13.7254 9.99726 13.5158 10.0609 13.337 10.1796C13.1581 10.2983 13.0178 10.4668 12.9333 10.6643V10.6643Z" stroke="#413DFB" stroke-width="1.2" stroke-linecap="round" stroke-linejoin="round"/>
</svg>
